<?xml version="1.0" encoding="UTF-8" standalone="no"?>
<!-- Created with Inkscape (http://www.inkscape.org/) -->

<svg
   width="512"
   height="512"
   viewBox="0 0 135.46667 135.46667"
   version="1.1"
   id="svg5"
   inkscape:version="1.2.2 (732a01da63, 2022-12-09)"
   sodipodi:docname="safemed_logo.svg"
   inkscape:export-filename="safemed_logo.svg"
   inkscape:export-xdpi="400"
   inkscape:export-ydpi="400"
   xmlns:inkscape="http://www.inkscape.org/namespaces/inkscape"
   xmlns:sodipodi="http://sodipodi.sourceforge.net/DTD/sodipodi-0.dtd"
   xmlns="http://www.w3.org/2000/svg"
   xmlns:svg="http://www.w3.org/2000/svg">
  <sodipodi:namedview
     id="namedview7"
     pagecolor="#505050"
     bordercolor="#ffffff"
     borderopacity="0.19607843"
     inkscape:showpageshadow="0"
     inkscape:pageopacity="1"
     inkscape:pagecheckerboard="1"
     inkscape:deskcolor="#505050"
     inkscape:document-units="mm"
     showgrid="true"
     inkscape:zoom="2"
     inkscape:cx="265.75"
     inkscape:cy="193.5"
     inkscape:window-width="2132"
     inkscape:window-height="1214"
     inkscape:window-x="3215"
     inkscape:window-y="22"
     inkscape:window-maximized="0"
     inkscape:current-layer="layer1">
    <inkscape:grid
       type="xygrid"
       id="grid2501"
       spacingx="0.52916668"
       spacingy="0.52916668"
       empspacing="8"
       originx="0"
       originy="0" />
  </sodipodi:namedview>
  <defs
     id="defs2">
    <filter
       style="color-interpolation-filters:sRGB;"
       inkscape:label="Drop Shadow"
       id="filter715"
       x="-0.37223845"
       y="-0.20790958"
       width="1.8995763"
       height="1.5024481">
      <feFlood
         flood-opacity="0.498039"
         flood-color="rgb(0,0,0)"
         result="flood"
         id="feFlood705" />
      <feComposite
         in="flood"
         in2="SourceGraphic"
         operator="in"
         result="composite1"
         id="feComposite707" />
      <feGaussianBlur
         in="composite1"
         stdDeviation="3"
         result="blur"
         id="feGaussianBlur709" />
      <feOffset
         dx="3"
         dy="3"
         result="offset"
         id="feOffset711" />
      <feComposite
         in="SourceGraphic"
         in2="offset"
         operator="over"
         result="composite2"
         id="feComposite713" />
    </filter>
    <filter
       style="color-interpolation-filters:sRGB;"
       inkscape:label="Drop Shadow"
       id="filter727"
       x="-0.37797275"
       y="-0.20949767"
       width="1.9134341"
       height="1.506286">
      <feFlood
         flood-opacity="0.498039"
         flood-color="rgb(0,0,0)"
         result="flood"
         id="feFlood717" />
      <feComposite
         in="flood"
         in2="SourceGraphic"
         operator="in"
         result="composite1"
         id="feComposite719" />
      <feGaussianBlur
         in="composite1"
         stdDeviation="3"
         result="blur"
         id="feGaussianBlur721" />
      <feOffset
         dx="3"
         dy="3"
         result="offset"
         id="feOffset723" />
      <feComposite
         in="SourceGraphic"
         in2="offset"
         operator="over"
         result="composite2"
         id="feComposite725" />
    </filter>
    <filter
       style="color-interpolation-filters:sRGB;"
       inkscape:label="Drop Shadow"
       id="filter739"
       x="-0.2429699"
       y="-0.088357056"
       width="1.5871773"
       height="1.2135296">
      <feFlood
         flood-opacity="0.498039"
         flood-color="rgb(0,0,0)"
         result="flood"
         id="feFlood729" />
      <feComposite
         in="flood"
         in2="SourceGraphic"
         operator="in"
         result="composite1"
         id="feComposite731" />
      <feGaussianBlur
         in="composite1"
         stdDeviation="3"
         result="blur"
         id="feGaussianBlur733" />
      <feOffset
         dx="3"
         dy="3"
         result="offset"
         id="feOffset735" />
      <feComposite
         in="SourceGraphic"
         in2="offset"
         operator="over"
         result="composite2"
         id="feComposite737" />
    </filter>
  </defs>
  <g
     inkscape:label="Logo"
     inkscape:groupmode="layer"
     id="layer1">
    <path
       id="rect16819"
       style="fill:#ffffff;fill-rule:evenodd;stroke:none;stroke-width:0.01;stroke-dasharray:none"
       d="m 88.680119,28.617636 c -0.473427,10e-7 -0.947233,0.181389 -1.309997,0.544153 -0.725529,0.72553 -0.725529,1.89395 0,2.619479 L 101.37547,45.7861 87.076603,60.084969 c -0.72553,0.72553 -0.725531,1.893431 -4e-6,2.618958 0.725534,0.725534 1.893949,0.725528 2.619478,-10e-7 l 15.341183,-15.341182 10e-4,-10e-4 c 0.10337,-0.06824 0.20134,-0.148109 0.29249,-0.239259 0.72553,-0.72553 0.72552,-1.893951 0,-2.619478 L 89.9896,29.161789 c -0.362764,-0.362764 -0.836053,-0.544153 -1.309481,-0.544153 z" />
    <path
       id="rect16834"
       style="fill:#ffffff;fill-rule:evenodd;stroke:none;stroke-width:0.01;stroke-dasharray:none"
       d="m 46.048352,29.378568 c -0.473427,-1e-6 -0.946715,0.181388 -1.30948,0.544153 L 29.575456,45.085619 c -0.06165,0.04782 -0.121096,0.09939 -0.177767,0.156063 -0.365547,0.365548 -0.546956,0.843797 -0.544152,1.32085 -0.0028,0.477053 0.178605,0.955302 0.544153,1.32085 0.05667,0.05667 0.116116,0.108244 0.177766,0.156062 l 15.163419,15.162902 c 0.725527,0.725527 1.893948,0.725529 2.619477,0 0.72553,-0.72553 0.725525,-1.893438 -2e-6,-2.618965 L 33.337501,46.562532 47.35835,32.541682 c 0.725529,-0.725529 0.725529,-1.893432 0,-2.618961 -0.362764,-0.362765 -0.83657,-0.544153 -1.309998,-0.544153 z"
       inkscape:label="left" />
    <path
       id="rect16836"
       style="fill:#ffffff;fill-opacity:1;fill-rule:evenodd;stroke:none;stroke-width:0.0107989;stroke-dasharray:none"
       inkscape:label="syringe"
       d="m 67.733335,3.1750001 c -1.058333,0 -1.5875,0.561129 -1.5875,1.5875 V 17.4625 l -1.853117,-0.0041 c -1.02676,-0.0023 -1.321881,0.533284 -1.321883,1.062485 -2e-6,0.529133 -0.131718,5.030132 -1.5875,6.879116 -0.243991,0.309892 -0.283613,0.282139 -1.058333,0.529166 -1.127331,0.359461 -1.419663,0.87221 -1.587501,1.5875 C 58.515865,28.461233 58.211467,63.4959 58.211467,63.4959 h -3.443718 c -1.025605,0 -1.851049,0.825445 -1.851049,1.85105 0,1.025606 0.825444,1.851053 1.851049,1.851566 l 11.378086,0.0057 V 80.96255 L 59.00105,80.96045 C 57.975523,80.960153 57.15,81.785981 57.15,82.8115 c 0,1.025529 0.825523,1.85105 1.85105,1.85105 h 17.464567 c 1.025527,0 1.85105,-0.825521 1.85105,-1.85105 0,-1.025519 -0.825523,-1.85105 -1.85105,-1.85105 l -7.144782,0.0021 V 67.204165 l 11.378115,-0.0057 c 1.025605,-5.14e-4 1.85105,-0.82596 1.85105,-1.851566 0,-1.025605 -0.825445,-1.85105 -1.85105,-1.85105 h -3.443717 c 0,0 0.0031,-34.920848 -0.526064,-35.979182 -0.334674,-0.669348 -0.56138,-1.33312 -1.5875,-1.5875 -0.726367,-0.18007 -0.814343,-0.219273 -1.058334,-0.529166 -1.455792,-1.848998 -1.587502,-6.349983 -1.5875,-6.879167 2e-6,-0.529184 -0.297207,-1.060935 -1.32395,-1.060935 -0.04108,0 -1.85105,0.0026 -1.85105,0.0026 V 4.7624991 c 0,-1.0583323 -0.529167,-1.587499 -1.5875,-1.587499 z M 66.145837,21.166667 h 3.175 c 0,0 1.039181,4.147949 1.058331,4.233334 H 65.087502 Z M 63.5,29.104167 h 8.466667 c 0.876751,1e-6 1.5875,0.710749 1.5875,1.5875 V 63.495866 H 61.9125 v -6.614067 h 4.4974 c 1.0263,0 1.8526,-0.8263 1.8526,-1.8526 0,-1.0263 -0.8263,-1.8526 -1.8526,-1.8526 h -4.4974 v -4.761466 h 4.4974 c 1.0263,0 1.8526,-0.8263 1.8526,-1.8526 0,-1.0263 -0.8263,-1.852601 -1.8526,-1.852601 h -4.4974 v -4.761466 h 4.4974 c 1.0263,0 1.8526,-0.8263 1.8526,-1.8526 0,-1.0263 -0.8263,-1.8526 -1.8526,-1.8526 h -4.4974 v -5.551599 c 0,-0.876752 0.710748,-1.5875 1.5875,-1.5875 z"
       sodipodi:nodetypes="cscssasscsssccssssssccssscssazscsccscccssscccsssccsssccssscss" />
  </g>
</svg>
