<?xml version="1.0" encoding="UTF-8" standalone="no"?>
<!-- Created with Inkscape (http://www.inkscape.org/) -->

<svg
   width="512"
   height="128"
   viewBox="0 0 135.46667 33.866667"
   version="1.1"
   id="svg5"
   inkscape:version="1.2.2 (732a01da63, 2022-12-09)"
   sodipodi:docname="safemed_textlogo.svg"
   inkscape:export-filename="logo_notext.svg"
   inkscape:export-xdpi="400"
   inkscape:export-ydpi="400"
   xmlns:inkscape="http://www.inkscape.org/namespaces/inkscape"
   xmlns:sodipodi="http://sodipodi.sourceforge.net/DTD/sodipodi-0.dtd"
   xmlns="http://www.w3.org/2000/svg"
   xmlns:svg="http://www.w3.org/2000/svg">
  <sodipodi:namedview
     id="namedview7"
     pagecolor="#505050"
     bordercolor="#ffffff"
     borderopacity="0.19607843"
     inkscape:showpageshadow="0"
     inkscape:pageopacity="1"
     inkscape:pagecheckerboard="1"
     inkscape:deskcolor="#505050"
     inkscape:document-units="mm"
     showgrid="true"
     inkscape:zoom="2"
     inkscape:cx="201.75"
     inkscape:cy="47.5"
     inkscape:window-width="1450"
     inkscape:window-height="1214"
     inkscape:window-x="3539"
     inkscape:window-y="84"
     inkscape:window-maximized="0"
     inkscape:current-layer="layer1">
    <inkscape:grid
       type="xygrid"
       id="grid2501"
       spacingx="0.52916668"
       spacingy="0.52916668"
       empspacing="8"
       originx="0"
       originy="0" />
  </sodipodi:namedview>
  <defs
     id="defs2" />
  <g
     inkscape:label="Logo"
     inkscape:groupmode="layer"
     id="layer1"
     transform="translate(-28.853505,-3.1750001)">
    <path
       id="rect16819"
       style="fill:#000000;fill-rule:evenodd;stroke:none;stroke-width:0.00416673;stroke-dasharray:none"
       d="m 47.934512,3.5522404 c -0.452588,0 -0.679029,0.2277143 -0.679029,0.6444051 v 5.1557576 l -0.792199,-0.00155 c -0.439086,-9.337e-4 -0.56534,0.2166508 -0.565341,0.4314982 -10e-7,0.2148199 -0.05647,2.0419357 -0.679028,2.7925937 -0.104341,0.125812 -0.120866,0.114685 -0.452169,0.214974 -0.482094,0.145936 -0.607253,0.354009 -0.679028,0.644405 -0.09478,0.38348 -0.225309,14.606861 -0.225309,14.606861 h -1.472262 c -0.438591,0 -0.791683,0.335511 -0.791683,0.751892 0,0.416378 0.353092,0.751167 0.791683,0.751375 l 4.865336,0.0026 v 5.585705 l -3.05511,-10e-4 c -0.438559,-1.2e-4 -0.791683,0.335031 -0.791683,0.751375 0,0.41635 0.353124,0.751892 0.791683,0.751892 h 7.468278 c 0.438557,0 0.791683,-0.335542 0.791683,-0.751892 0,-0.416344 -0.353126,-0.751375 -0.791683,-0.751375 l -3.055111,10e-4 v -5.585705 l 4.865853,-0.0026 c 0.438588,-2.09e-4 0.791683,-0.334995 0.791683,-0.751375 0,-0.416379 -0.353095,-0.751892 -0.791683,-0.751892 h -1.472779 c 0,0 0.0016,-14.177193 -0.224792,-14.606861 -0.143121,-0.271744 -0.240216,-0.541132 -0.679028,-0.644405 -0.310625,-0.07311 -0.348345,-0.08916 -0.452686,-0.214974 -0.622557,-0.750664 -0.679029,-2.5777532 -0.679028,-2.7925937 10e-7,-0.2148407 -0.126779,-0.4309815 -0.565857,-0.4309815 -0.01757,0 -0.791683,0.00103 -0.791683,0.00103 V 4.1966455 c 0,-0.4296665 -0.226441,-0.6444051 -0.679028,-0.6444051 z m -0.679029,7.3039466 h 1.358057 c 0,0 0.444495,1.684093 0.452685,1.718758 h -2.262911 z m -1.131197,3.222542 h 3.620451 c 0.374935,1e-6 0.679028,0.288976 0.679028,0.644922 v 13.317534 h -4.978507 v -2.685108 h 1.923397 c 0.438889,0 0.792199,-0.335229 0.792199,-0.751892 0,-0.416661 -0.35331,-0.752409 -0.792199,-0.752409 h -1.923397 v -1.932698 h 1.923397 c 0.438889,0 0.792199,-0.335747 0.792199,-0.752409 0,-0.416662 -0.35331,-0.751892 -0.792199,-0.751892 h -1.923397 v -1.933216 h 1.923397 c 0.438889,0 0.792199,-0.335746 0.792199,-0.752408 0,-0.416662 -0.35331,-0.751893 -0.792199,-0.751893 h -1.923397 v -2.253609 c 0,-0.355947 0.304093,-0.644922 0.679028,-0.644922 z m -7.46311,0.111621 c -0.202457,0 -0.405039,0.07338 -0.560173,0.220659 l -6.484358,6.156213 c -0.02636,0.01942 -0.05174,0.04003 -0.07597,0.06305 -0.156323,0.148407 -0.233744,0.342725 -0.232544,0.536402 -0.0012,0.193677 0.07622,0.387993 0.232544,0.536401 0.02424,0.023 0.0496,0.04364 0.07597,0.06305 l 6.484358,6.156214 c 0.310266,0.294552 0.810079,0.294553 1.120345,0 0.310268,-0.294554 0.310267,-0.768948 0,-1.063501 l -5.996016,-5.692159 5.996016,-5.692159 c 0.310267,-0.294555 0.310267,-0.768947 0,-1.063501 -0.155132,-0.147277 -0.357714,-0.220658 -0.560172,-0.220659 z m 18.100704,0.0062 c -0.202458,0 -0.405041,0.0739 -0.560173,0.221175 -0.310266,0.294554 -0.310266,0.768947 0,1.063501 l 5.989299,5.685441 -6.114872,5.80533 c -0.310268,0.294554 -0.310268,0.768432 0,1.062984 0.310267,0.294556 0.810077,0.294553 1.120345,0 l 6.560839,-6.228043 v -5.17e-4 c 0.0442,-0.0277 0.08608,-0.06014 0.125057,-0.09715 0.310267,-0.294553 0.310264,-0.768948 0,-1.063501 L 57.322052,14.417727 C 57.166916,14.27045 56.964339,14.196551 56.76188,14.196552 Z" />
    <g
       aria-label="SafeMed"
       id="text1219"
       style="font-size:12.7px;line-height:1.25;font-family:Calibri;-inkscape-font-specification:'Calibri, Normal';stroke-width:0.264585"
       transform="matrix(2.0904199,0,0,2.2086305,-23.162264,-183.40531)">
      <path
         d="m 49.646584,94.997823 q 0,0.564306 -0.21084,1.004589 -0.204638,0.440284 -0.576709,0.750342 -0.365869,0.303858 -0.868164,0.458887 -0.496093,0.155029 -1.072802,0.155029 -0.403077,0 -0.750342,-0.06821 -0.341065,-0.06821 -0.613916,-0.167431 -0.266651,-0.09922 -0.452686,-0.204639 -0.179834,-0.10542 -0.254248,-0.179834 -0.06821,-0.07441 -0.10542,-0.186035 -0.03101,-0.117822 -0.03101,-0.310059 0,-0.136425 0.0124,-0.223242 0.0124,-0.09302 0.03721,-0.148828 0.02481,-0.05581 0.06201,-0.07441 0.03721,-0.02481 0.08682,-0.02481 0.08682,0 0.241846,0.10542 0.16123,0.10542 0.409277,0.229444 0.248047,0.124023 0.595313,0.235644 0.353466,0.10542 0.812353,0.10542 0.347266,0 0.63252,-0.09302 0.291455,-0.09302 0.496093,-0.260449 0.21084,-0.173633 0.322461,-0.421679 0.111621,-0.248047 0.111621,-0.564307 0,-0.341065 -0.155029,-0.58291 -0.155029,-0.241846 -0.409277,-0.42168 -0.254248,-0.186035 -0.58291,-0.334863 -0.322461,-0.15503 -0.663526,-0.310059 -0.341064,-0.16123 -0.663525,-0.353467 -0.322461,-0.192236 -0.576709,-0.452685 -0.254248,-0.260449 -0.415479,-0.607715 -0.155029,-0.353467 -0.155029,-0.843359 0,-0.502295 0.179834,-0.892969 0.186035,-0.396875 0.508496,-0.663525 0.328662,-0.266651 0.775147,-0.403077 0.452685,-0.142627 0.973584,-0.142627 0.26665,0 0.5333,0.04961 0.272852,0.04341 0.508496,0.124023 0.241846,0.07441 0.427881,0.173633 0.186035,0.09302 0.241846,0.155029 0.06201,0.05581 0.08062,0.09302 0.0186,0.03101 0.03101,0.08682 0.0124,0.04961 0.0186,0.124024 0.0062,0.07441 0.0062,0.192236 0,0.111621 -0.0124,0.198438 -0.0062,0.08682 -0.0248,0.148828 -0.0186,0.05581 -0.05581,0.08682 -0.03101,0.02481 -0.07441,0.02481 -0.06821,0 -0.217041,-0.08682 -0.142627,-0.08682 -0.353467,-0.192236 -0.21084,-0.111621 -0.502295,-0.198437 -0.285254,-0.09302 -0.644922,-0.09302 -0.334863,0 -0.58291,0.09302 -0.248047,0.08682 -0.409277,0.235644 -0.16123,0.148828 -0.241846,0.353467 -0.08062,0.204639 -0.08062,0.434082 0,0.334863 0.155029,0.576709 0.15503,0.241846 0.409278,0.427881 0.260449,0.186035 0.589111,0.341064 0.328662,0.155029 0.669727,0.31626 0.341064,0.155029 0.669726,0.347266 0.328662,0.186035 0.58291,0.446484 0.260449,0.254248 0.415479,0.607715 0.16123,0.347265 0.16123,0.824756 z"
         id="path1333" />
      <path
         d="m 55.258645,97.10002 q 0,0.07441 -0.04961,0.111621 -0.04961,0.03721 -0.136426,0.05581 -0.08682,0.0186 -0.254248,0.0186 -0.161231,0 -0.26045,-0.0186 -0.09302,-0.0186 -0.136425,-0.05581 -0.04341,-0.03721 -0.04341,-0.111621 v -0.558106 q -0.365869,0.390674 -0.818554,0.607715 -0.446485,0.217041 -0.948779,0.217041 -0.440284,0 -0.799952,-0.117822 -0.353466,-0.111621 -0.607714,-0.328662 -0.248047,-0.217041 -0.390674,-0.533301 -0.136426,-0.31626 -0.136426,-0.719336 0,-0.471289 0.192236,-0.818555 0.192237,-0.347265 0.551905,-0.576708 0.359668,-0.229444 0.880566,-0.341065 0.520898,-0.117822 1.172021,-0.117822 h 0.768946 v -0.434082 q 0,-0.322461 -0.06821,-0.570508 -0.06821,-0.248047 -0.223242,-0.409277 -0.148828,-0.167432 -0.390674,-0.248047 -0.241846,-0.08682 -0.595313,-0.08682 -0.378271,0 -0.682129,0.09302 -0.297656,0.08682 -0.527099,0.198437 -0.223242,0.10542 -0.378272,0.198438 -0.148828,0.08682 -0.223242,0.08682 -0.04961,0 -0.08682,-0.0248 -0.03721,-0.02481 -0.06821,-0.07441 -0.02481,-0.04961 -0.03721,-0.124024 -0.0124,-0.08062 -0.0124,-0.173633 0,-0.155029 0.0186,-0.241845 0.02481,-0.09302 0.10542,-0.173633 0.08682,-0.08062 0.291455,-0.186035 0.204639,-0.111621 0.471289,-0.198438 0.26665,-0.09302 0.58291,-0.148828 0.31626,-0.06201 0.638721,-0.06201 0.601514,0 1.023193,0.136426 0.42168,0.136426 0.682129,0.403076 0.260449,0.260449 0.378272,0.651123 0.117822,0.390674 0.117822,0.911573 z m -1.016992,-2.548682 h -0.874366 q -0.421679,0 -0.731738,0.07441 -0.310058,0.06821 -0.514697,0.21084 -0.204639,0.136426 -0.303857,0.334863 -0.09302,0.192237 -0.09302,0.446485 0,0.434082 0.272852,0.694531 0.279052,0.254248 0.775146,0.254248 0.403076,0 0.744141,-0.204639 0.347265,-0.204638 0.725537,-0.626318 z"
         id="path1335" />
      <path
         d="m 60.120364,89.218331 q 0,0.117822 -0.0124,0.192236 -0.0124,0.06821 -0.03101,0.111621 -0.0124,0.04341 -0.03721,0.06201 -0.0248,0.0124 -0.06201,0.0124 -0.04341,0 -0.111621,-0.02481 -0.06201,-0.03101 -0.15503,-0.06201 -0.09302,-0.03721 -0.223242,-0.06201 -0.124023,-0.03101 -0.291455,-0.03101 -0.229443,0 -0.390674,0.07441 -0.16123,0.07441 -0.260449,0.235645 -0.09922,0.155029 -0.142627,0.409277 -0.04341,0.248047 -0.04341,0.607715 v 0.607715 h 1.246435 q 0.04961,0 0.08062,0.0248 0.03721,0.0186 0.06201,0.07441 0.03101,0.04961 0.04341,0.130225 0.0186,0.08061 0.0186,0.198437 0,0.223243 -0.05581,0.322461 -0.05581,0.09922 -0.148828,0.09922 h -1.246435 v 4.892725 q 0,0.04961 -0.02481,0.08682 -0.02481,0.03101 -0.08682,0.05581 -0.05581,0.0248 -0.15503,0.03721 -0.09922,0.0124 -0.248046,0.0124 -0.148829,0 -0.248047,-0.0124 -0.09922,-0.0124 -0.161231,-0.03721 -0.05581,-0.02481 -0.08062,-0.05581 -0.02481,-0.03721 -0.02481,-0.08682 v -4.892725 h -0.787549 q -0.09922,0 -0.148828,-0.09922 -0.04961,-0.09922 -0.04961,-0.322461 0,-0.117822 0.0124,-0.198437 0.0124,-0.08062 0.03721,-0.130225 0.02481,-0.05581 0.06201,-0.07441 0.03721,-0.0248 0.08682,-0.0248 h 0.787549 v -0.576709 q 0,-0.582911 0.10542,-0.998389 0.111621,-0.42168 0.334863,-0.68833 0.223243,-0.26665 0.558106,-0.390674 0.341064,-0.130225 0.799951,-0.130225 0.217041,0 0.42168,0.04341 0.204638,0.03721 0.31626,0.08682 0.111621,0.04341 0.148828,0.08061 0.03721,0.03721 0.06201,0.09922 0.02481,0.05581 0.03101,0.142627 0.0124,0.08062 0.0124,0.198438 z"
         id="path1337" />
      <path
         d="m 65.385159,94.061446 q 0,0.241845 -0.124024,0.347265 -0.117822,0.09922 -0.272851,0.09922 h -3.658692 q 0,0.465088 0.09302,0.837158 0.09302,0.372071 0.310059,0.638721 0.217041,0.26665 0.564306,0.409277 0.347266,0.142627 0.849561,0.142627 0.396875,0 0.706933,-0.06201 0.310059,-0.06821 0.533301,-0.148828 0.229444,-0.08061 0.37207,-0.142627 0.148829,-0.06821 0.223243,-0.06821 0.04341,0 0.07441,0.0248 0.03721,0.0186 0.05581,0.06201 0.0186,0.04341 0.02481,0.124023 0.0124,0.07441 0.0124,0.186036 0,0.08062 -0.0062,0.142626 -0.0062,0.05581 -0.0186,0.10542 -0.0062,0.04341 -0.03101,0.08062 -0.0186,0.03721 -0.05581,0.07441 -0.03101,0.03101 -0.198437,0.111621 -0.167432,0.07441 -0.434082,0.148828 -0.266651,0.07441 -0.620117,0.130225 -0.347266,0.06201 -0.744141,0.06201 -0.68833,0 -1.209229,-0.192236 -0.514697,-0.192236 -0.868164,-0.570508 -0.353466,-0.378271 -0.5333,-0.948779 -0.179834,-0.570508 -0.179834,-1.327051 0,-0.719336 0.186035,-1.289844 0.186035,-0.576709 0.533301,-0.973584 0.353466,-0.403076 0.84956,-0.613916 0.496094,-0.217041 1.11001,-0.217041 0.657324,0 1.116211,0.21084 0.465088,0.21084 0.762744,0.570508 0.297656,0.353467 0.434082,0.837158 0.142627,0.47749 0.142627,1.023194 z m -1.029395,-0.303858 q 0.0186,-0.806152 -0.359668,-1.265039 -0.37207,-0.458887 -1.110009,-0.458887 -0.378272,0 -0.663526,0.142627 -0.285254,0.142627 -0.47749,0.378272 -0.192236,0.235644 -0.297656,0.551904 -0.10542,0.310059 -0.117823,0.651123 z"
         id="path1339" />
      <path
         d="m 75.784524,97.087617 q 0,0.04961 -0.0248,0.08682 -0.02481,0.03721 -0.08682,0.06201 -0.06201,0.0186 -0.16123,0.031 -0.09302,0.0186 -0.248047,0.0186 -0.142627,0 -0.248047,-0.0186 -0.09922,-0.0124 -0.16123,-0.031 -0.05581,-0.02481 -0.08062,-0.06201 -0.0248,-0.03721 -0.0248,-0.08682 v -6.98872 h -0.0124 l -2.85874,7.019726 q -0.0186,0.04341 -0.05581,0.07441 -0.03101,0.03101 -0.09922,0.05581 -0.06201,0.0186 -0.155029,0.02481 -0.08682,0.0124 -0.21084,0.0124 -0.130225,0 -0.223242,-0.0124 -0.09302,-0.0124 -0.15503,-0.03101 -0.06201,-0.02481 -0.09922,-0.05581 -0.03101,-0.03101 -0.04341,-0.06821 l -2.734716,-7.019726 h -0.0062 v 6.98872 q 0,0.04961 -0.0248,0.08682 -0.02481,0.03721 -0.08682,0.06201 -0.06201,0.0186 -0.16123,0.031 -0.09922,0.0186 -0.254248,0.0186 -0.148828,0 -0.248047,-0.0186 -0.09922,-0.0124 -0.161231,-0.031 -0.05581,-0.02481 -0.08061,-0.06201 -0.0186,-0.03721 -0.0186,-0.08682 v -7.379394 q 0,-0.260449 0.136425,-0.37207 0.136426,-0.111621 0.303858,-0.111621 h 0.644922 q 0.198437,0 0.347265,0.03721 0.148828,0.03721 0.26045,0.117822 0.111621,0.08062 0.186035,0.204639 0.07441,0.124023 0.130224,0.291455 l 2.32544,5.810498 h 0.03101 l 2.418457,-5.791895 q 0.06821,-0.186035 0.148828,-0.31626 0.08062,-0.130224 0.173633,-0.204638 0.09922,-0.08062 0.217041,-0.111621 0.117822,-0.03721 0.272851,-0.03721 h 0.675928 q 0.09302,0 0.173633,0.03101 0.08682,0.0248 0.142627,0.08682 0.06201,0.05581 0.09922,0.148828 0.03721,0.08682 0.03721,0.217041 z"
         id="path1341" />
      <path
         d="m 82.562403,94.061446 q 0,0.241845 -0.124023,0.347265 -0.117823,0.09922 -0.272852,0.09922 h -3.658691 q 0,0.465088 0.09302,0.837158 0.09302,0.372071 0.310059,0.638721 0.217041,0.26665 0.564306,0.409277 0.347266,0.142627 0.849561,0.142627 0.396875,0 0.706934,-0.06201 0.310058,-0.06821 0.5333,-0.148828 0.229444,-0.08061 0.372071,-0.142627 0.148828,-0.06821 0.223242,-0.06821 0.04341,0 0.07441,0.0248 0.03721,0.0186 0.05581,0.06201 0.0186,0.04341 0.02481,0.124023 0.0124,0.07441 0.0124,0.186036 0,0.08062 -0.0062,0.142626 -0.0062,0.05581 -0.0186,0.10542 -0.0062,0.04341 -0.03101,0.08062 -0.0186,0.03721 -0.05581,0.07441 -0.031,0.03101 -0.198437,0.111621 -0.167432,0.07441 -0.434082,0.148828 -0.266651,0.07441 -0.620117,0.130225 -0.347266,0.06201 -0.744141,0.06201 -0.68833,0 -1.209228,-0.192236 -0.514698,-0.192236 -0.868164,-0.570508 -0.353467,-0.378271 -0.533301,-0.948779 -0.179834,-0.570508 -0.179834,-1.327051 0,-0.719336 0.186035,-1.289844 0.186035,-0.576709 0.533301,-0.973584 0.353467,-0.403076 0.84956,-0.613916 0.496094,-0.217041 1.11001,-0.217041 0.657324,0 1.116211,0.21084 0.465088,0.21084 0.762744,0.570508 0.297656,0.353467 0.434082,0.837158 0.142627,0.47749 0.142627,1.023194 z m -1.029394,-0.303858 q 0.0186,-0.806152 -0.359668,-1.265039 -0.372071,-0.458887 -1.11001,-0.458887 -0.378272,0 -0.663526,0.142627 -0.285253,0.142627 -0.47749,0.378272 -0.192236,0.235644 -0.297656,0.551904 -0.10542,0.310059 -0.117822,0.651123 z"
         id="path1343" />
      <path
         d="m 88.900003,97.093819 q 0,0.04961 -0.02481,0.08682 -0.0186,0.03721 -0.07441,0.06201 -0.04961,0.0186 -0.136426,0.03101 -0.08682,0.0124 -0.210839,0.0124 -0.130225,0 -0.217041,-0.0124 -0.08682,-0.0124 -0.142627,-0.03101 -0.05581,-0.02481 -0.08062,-0.06201 -0.0248,-0.03721 -0.0248,-0.08682 v -0.73794 q -0.440283,0.47749 -0.917774,0.744141 -0.471289,0.26665 -1.035595,0.26665 -0.613916,0 -1.047998,-0.235644 -0.434082,-0.241846 -0.706934,-0.644922 -0.26665,-0.409278 -0.390674,-0.954981 -0.124023,-0.551904 -0.124023,-1.159619 0,-0.719336 0.155029,-1.296045 0.155029,-0.58291 0.458887,-0.992187 0.303857,-0.409277 0.750342,-0.626318 0.452685,-0.223243 1.041796,-0.223243 0.489893,0 0.892969,0.217041 0.409277,0.21084 0.806152,0.626319 v -3.243213 q 0,-0.04341 0.0186,-0.08062 0.02481,-0.04341 0.08682,-0.06201 0.06201,-0.02481 0.15503,-0.03721 0.09922,-0.0186 0.248047,-0.0186 0.155029,0 0.254248,0.0186 0.09922,0.0124 0.155029,0.03721 0.05581,0.0186 0.08061,0.06201 0.03101,0.03721 0.03101,0.08062 z m -1.029395,-3.925342 q -0.415478,-0.514697 -0.806152,-0.781348 -0.384473,-0.272851 -0.806152,-0.272851 -0.390674,0 -0.663526,0.186035 -0.272851,0.186035 -0.446484,0.489892 -0.167432,0.303858 -0.248047,0.688331 -0.07441,0.384472 -0.07441,0.781347 0,0.42168 0.06201,0.824756 0.06821,0.403076 0.229443,0.719336 0.161231,0.310059 0.427881,0.502295 0.26665,0.186035 0.669727,0.186035 0.204638,0 0.390673,-0.05581 0.192237,-0.05581 0.390674,-0.186035 0.198438,-0.130224 0.415479,-0.334863 0.217041,-0.21084 0.458886,-0.514697 z"
         id="path1345" />
    </g>
  </g>
</svg>
